<svg xmlns="http://www.w3.org/2000/svg" viewBox="0 0 64 64" width="64" height="64">
  <!-- 棋盘背景 -->
  <rect x="4" y="4" width="56" height="56" rx="4" fill="#D4A574" stroke="#8B4513" stroke-width="1"/>
  
  <!-- 棋盘网格线 -->
  <defs>
    <pattern id="grid" width="8" height="8" patternUnits="userSpaceOnUse">
      <path d="M 8 0 L 0 0 0 8" fill="none" stroke="#8B4513" stroke-width="0.5" opacity="0.6"/>
    </pattern>
  </defs>
  <rect x="8" y="8" width="48" height="48" fill="url(#grid)"/>
  
  <!-- 棋盘边框线 -->
  <rect x="8" y="8" width="48" height="48" fill="none" stroke="#8B4513" stroke-width="1"/>
  
  <!-- 天元点 -->
  <circle cx="32" cy="32" r="1.5" fill="#8B4513"/>
  
  <!-- 黑棋 -->
  <circle cx="24" cy="24" r="3.5" fill="#1a1a1a" stroke="#333" stroke-width="0.5"/>
  <circle cx="40" cy="24" r="3.5" fill="#1a1a1a" stroke="#333" stroke-width="0.5"/>
  <circle cx="32" cy="40" r="3.5" fill="#1a1a1a" stroke="#333" stroke-width="0.5"/>
  
  <!-- 白棋 -->
  <circle cx="24" cy="40" r="3.5" fill="#f8f8f8" stroke="#ccc" stroke-width="0.5"/>
  <circle cx="40" cy="40" r="3.5" fill="#f8f8f8" stroke="#ccc" stroke-width="0.5"/>
  
  <!-- 渐变效果增强立体感 -->
  <defs>
    <radialGradient id="blackGrad" cx="0.3" cy="0.3" r="0.7">
      <stop offset="0%" style="stop-color:#333;stop-opacity:1" />
      <stop offset="100%" style="stop-color:#000;stop-opacity:1" />
    </radialGradient>
    <radialGradient id="whiteGrad" cx="0.3" cy="0.3" r="0.7">
      <stop offset="0%" style="stop-color:#fff;stop-opacity:1" />
      <stop offset="100%" style="stop-color:#ddd;stop-opacity:1" />
    </radialGradient>
  </defs>
  
  <!-- 应用渐变的棋子 -->
  <circle cx="24" cy="24" r="3" fill="url(#blackGrad)"/>
  <circle cx="40" cy="24" r="3" fill="url(#blackGrad)"/>
  <circle cx="32" cy="40" r="3" fill="url(#blackGrad)"/>
  <circle cx="24" cy="40" r="3" fill="url(#whiteGrad)"/>
  <circle cx="40" cy="40" r="3" fill="url(#whiteGrad)"/>
</svg>
